<?xml version="1.0" encoding="UTF-8"?>
<!-- Created with Inkscape (http://www.inkscape.org/) -->
<svg width="270" height="100" version="1.1" viewBox="0 0 270 100" xmlns="http://www.w3.org/2000/svg" xmlns:cc="http://creativecommons.org/ns#" xmlns:dc="http://purl.org/dc/elements/1.1/" xmlns:rdf="http://www.w3.org/1999/02/22-rdf-syntax-ns#">
 <metadata>
  <rdf:RDF>
   <cc:Work rdf:about="">
    <dc:format>image/svg+xml</dc:format>
    <dc:type rdf:resource="http://purl.org/dc/dcmitype/StillImage"/>
    <dc:title/>
   </cc:Work>
  </rdf:RDF>
 </metadata>
 <g fill="#fff">
  <path d="m213.603 85.9745c2.18864 0.11574 3.30742-0.97207 4.48805-2.32637l15.8292-18.1577c1.74487-1.91133 2.12376-2.05886 4.6278-2.78217l11.3313-3.27316c1.57911-0.4772 3.09692-2.57304 3.39177-4.67831 0 0 0.0436-28.0093 0.0595-34.5838 7e-3 -3.21054-2.22638-6.15661-5.78097-6.15661h-225.1c-3.55458 0-5.78872 2.94607-5.78096 6.15661 0.01588 6.57454 0.05956 34.5838 0.05956 34.5838 0.294845 2.10527 1.81266 4.20111 3.39178 4.67831l11.3313 3.27316c2.50404 0.72331 2.88293 0.87084 4.6278 2.78217l15.8292 18.1577c1.18063 1.3543 2.29941 2.44209 4.48805 2.32637h157.207z"/>
  <g stroke="#000" stroke-linejoin="round" stroke-width="1.22469">
   <rect class="st2" x="53.245" y="32.5877" width="6.7265" height="13.1958"/>
   <rect class="st2" x="70.6223" y="32.5877" width="6.7265" height="13.1958"/>
   <rect class="st2" x="87.9995" y="32.5877" width="6.7265" height="13.1958"/>
   <rect class="st2" x="105.377" y="32.5877" width="6.7265" height="13.1958"/>
   <rect class="st2" x="140.131" y="32.5877" width="6.7265" height="13.1958"/>
   <rect class="st2" x="122.754" y="32.5877" width="6.7265" height="13.1958"/>
   <rect class="st2" x="157.509" y="32.5877" width="6.7265" height="13.1958"/>
   <rect class="st2" x="174.886" y="32.5877" width="6.7265" height="13.1958"/>
   <rect class="st2" x="192.263" y="32.5877" width="6.7265" height="13.1958"/>
   <rect class="st2" x="209.64" y="32.5877" width="6.7265" height="13.1958"/>
   <rect class="st2" x="61.6177" y="53.2663" width="6.71408" height="13.1834"/>
   <rect class="st2" x="79.0375" y="53.2663" width="6.71408" height="13.1834"/>
   <rect class="st2" x="96.4573" y="53.2663" width="6.71408" height="13.1834"/>
   <rect class="st2" x="113.877" y="53.2663" width="6.71408" height="13.1834"/>
   <rect class="st2" x="131.297" y="53.2663" width="6.71408" height="13.1834"/>
   <rect class="st2" x="148.717" y="53.2663" width="6.71408" height="13.1834"/>
   <rect class="st2" x="166.136" y="53.2663" width="6.71408" height="13.1834"/>
   <rect class="st2" x="183.556" y="53.2663" width="6.71408" height="13.1834"/>
   <rect class="st2" x="200.976" y="53.2663" width="6.71408" height="13.1834"/>
  </g>
  <path d="m22.4487 14.0165c-3.55458 0-5.78844 2.94607-5.78068 6.15661 0.01588 6.57454 0.05949 34.5835 0.05949 34.5835 0.294844 2.10528 1.81246 4.20165 3.39158 4.67884l11.3316 3.2726c2.50404 0.72331 2.88271 0.87143 4.62758 2.78276l15.8295 18.1572c1.18063 1.3543 2.29908 2.44218 4.48772 2.32646h157.207c2.18864 0.11573 3.30771-0.97216 4.48835-2.32646l15.8288-18.1572c1.74487-1.91133 2.12418-2.05945 4.62822-2.78276l11.331-3.2726c1.57911-0.47719 3.09736-2.57356 3.39221-4.67884 0 0 0.0436-28.0089 0.0595-34.5835 7e-3 -3.21054-2.22673-6.15661-5.78131-6.15661zm27.9775 9.23048h12.3645v12.3645h-12.3645zm17.3769 0h12.3651v12.3645h-12.3651zm17.3775 0h12.3645v12.3645h-12.3645zm17.3768 0h12.3651v12.3645h-12.3651zm17.3775 0h12.3645v12.3645h-12.3645zm17.3775 0h12.3645v12.3645h-12.3645zm17.3768 0h12.3651v12.3645h-12.3651zm17.3775 0h12.3645v12.3645h-12.3645zm17.3775 0h12.3645v12.3645h-12.3645zm17.3769 0h12.3651v12.3645h-12.3651zm-182.248 14.5523h220.733v11.3785l-23.0202 12.1797h-174.693l-23.0202-12.1797zm34.2196 25.7162h12.3651v12.3651h-12.3651zm17.4199 0h12.3651v12.3651h-12.3651zm17.4199 0h12.3645v12.3651h-12.3645zm17.4199 0h12.3645v12.3651h-12.3645zm17.4199 0h12.3645v12.3651h-12.3645zm17.4199 0h12.3645v12.3651h-12.3645zm17.4193 0h12.3651v12.3651h-12.3651zm17.4199 0h12.3651v12.3651h-12.3651zm17.4199 0h12.3645v12.3651h-12.3645z"/>
 </g>
 <g fill="none" stroke="#000">
  <g stroke-width="1.22469">
   <path d="m24.5725 37.7991v11.3786l23.0203 12.1796h174.693l23.0203-12.1796v-11.3786z"/>
   <rect x="50.4259" y="23.2468" width="12.3647" height="12.3647"/>
   <rect x="206.821" y="23.2468" width="12.3647" height="12.3647"/>
   <rect x="67.8032" y="23.2468" width="12.3647" height="12.3647"/>
   <rect x="189.444" y="23.2468" width="12.3647" height="12.3647"/>
   <rect x="172.067" y="23.2468" width="12.3647" height="12.3647"/>
   <rect x="154.689" y="23.2468" width="12.3647" height="12.3647"/>
   <rect x="137.312" y="23.2468" width="12.3647" height="12.3647"/>
   <rect x="119.935" y="23.2468" width="12.3647" height="12.3647"/>
   <rect x="102.558" y="23.2468" width="12.3647" height="12.3647"/>
   <rect x="85.1804" y="23.2468" width="12.3647" height="12.3647"/>
  </g>
  <path d="m213.603 85.9745c2.18864 0.11574 3.30742-0.97207 4.48805-2.32637l15.8292-18.1577c1.74487-1.91133 2.12376-2.05886 4.6278-2.78217l11.3313-3.27316c1.57911-0.4772 3.09692-2.57304 3.39177-4.67831 0 0 0.0436-28.0093 0.0595-34.5838 7e-3 -3.21054-2.22638-6.15661-5.78097-6.15661h-225.1c-3.55458 0-5.78872 2.94607-5.78096 6.15661 0.01588 6.57454 0.05956 34.5838 0.05956 34.5838 0.294845 2.10527 1.81266 4.20111 3.39178 4.67831l11.3313 3.27316c2.50404 0.72331 2.88293 0.87084 4.6278 2.78217l15.8292 18.1577c1.18063 1.3543 2.29941 2.44209 4.48805 2.32637h157.207z" stroke-miterlimit="1.3" stroke-width="4.89875"/>
  <g stroke-width="1.22469">
   <rect x="58.7924" y="63.5158" width="12.3647" height="12.3647"/>
   <rect x="76.2122" y="63.5158" width="12.3647" height="12.3647"/>
   <rect x="198.151" y="63.5158" width="12.3647" height="12.3647"/>
   <rect x="180.731" y="63.5158" width="12.3647" height="12.3647"/>
   <rect x="163.311" y="63.5158" width="12.3647" height="12.3647"/>
   <rect x="145.891" y="63.5158" width="12.3647" height="12.3647"/>
   <rect x="128.472" y="63.5158" width="12.3647" height="12.3647"/>
   <rect x="111.052" y="63.5158" width="12.3647" height="12.3647"/>
   <rect x="93.632" y="63.5158" width="12.3647" height="12.3647"/>
  </g>
 </g>
</svg>
